<?xml version="1.0" encoding="utf-8"?>
<!-- Generator: Adobe Illustrator 15.1.0, SVG Export Plug-In . SVG Version: 6.00 Build 0)  -->
<!DOCTYPE svg PUBLIC "-//W3C//DTD SVG 1.1//EN" "http://www.w3.org/Graphics/SVG/1.1/DTD/svg11.dtd">
<svg version="1.1" id="Layer_1" xmlns="http://www.w3.org/2000/svg" xmlns:xlink="http://www.w3.org/1999/xlink" x="0px" y="0px"
	 width="430.59px" height="882.468px" viewBox="0 0 430.59 882.468" enable-background="new 0 0 430.59 882.468"
	 xml:space="preserve">
<g>
	<path fill="none" stroke="#CCCCCC" stroke-miterlimit="10" d="M382.369,881.485H48.038c-25.816,0-47.056-21.239-47.056-47.238
		V48.038c0-25.816,21.239-47.056,47.056-47.056h334.331c26,0,47.238,21.239,47.238,47.056v786.209
		C429.607,860.246,408.369,881.485,382.369,881.485z"/>
	<rect x="27.897" y="115.05" fill="none" stroke="#CCCCCC" stroke-miterlimit="10" width="374.978" height="668.846"/>
	<path fill="none" stroke="#CCCCCC" stroke-miterlimit="10" d="M156.064,63.234c0,4.395-3.479,7.873-7.874,7.873
		c-4.211,0-7.69-3.479-7.69-7.873c0-4.211,3.479-7.689,7.69-7.689C152.585,55.545,156.064,59.023,156.064,63.234z"/>
	<path fill="none" stroke="#CCCCCC" stroke-miterlimit="10" d="M222.344,34.123c0,3.113-2.562,5.676-5.676,5.676
		c-3.112,0-5.676-2.563-5.676-5.676s2.563-5.676,5.676-5.676C219.781,28.446,222.344,31.01,222.344,34.123z"/>
	<path fill="none" stroke="#CCCCCC" stroke-miterlimit="10" d="M246.146,66.713h-62.436c-2.197,0-4.211-2.014-4.211-4.394
		c0-2.38,2.014-4.211,4.211-4.211h62.436c2.197,0,4.211,1.831,4.211,4.211C250.357,64.699,248.344,66.713,246.146,66.713z"/>
	<path fill="none" stroke="#CCCCCC" stroke-miterlimit="10" d="M214.838,870.316L214.838,870.316
		c-19.043,0-34.789-15.562-34.789-34.604s15.746-34.788,34.789-34.788c19.041,0,34.604,15.746,34.604,34.788
		S233.879,870.316,214.838,870.316z"/>
	<path fill="none" stroke="#CCCCCC" stroke-miterlimit="10" d="M214.838,864.092L214.838,864.092
		c-15.747,0-28.381-12.816-28.381-28.38s12.634-28.38,28.381-28.38c15.562,0,28.379,12.816,28.379,28.38
		S230.4,864.092,214.838,864.092z"/>
</g>
</svg>
